
<svg xmlns="http://www.w3.org/2000/svg" xmlns:xlink="http://www.w3.org/1999/xlink" id="body_1" width="1000" height="217">

<g transform="matrix(1 0 0 1 0 0)">
	<g transform="matrix(2.5232558 0 0 2.5232558 -0.738535 0.96668684)">
		<g transform="matrix(1 0 0 1 0.23999414 -0.15183197)">
			<g transform="matrix(1 0 0 1 0 0)">
				<g transform="matrix(1 0 0 1 0 0)">
					<g transform="matrix(1 0 0 1 0 0)">
						<g transform="matrix(1 0 0 1 0 0)">
							<g transform="matrix(2.362542 0 0 2.362542 -7.03694 85.051506)">
                                <path transform="matrix(1 0 0 1 0 0)"  d="M14.31 0L3.83 0L3.83 -35.55L13.96 -35.55C 17.2 -35.550003 19.640001 -34.760002 21.28 -33.18L21.28 -33.18L23.73 -26.07C 23.73 -24.41 23.316666 -22.946667 22.49 -21.68L22.49 -21.68L19.12 -18.73C 20.746666 -18.236668 22.036667 -17.233334 22.99 -15.72L22.99 -15.72L24.41 -10.25C 24.410002 -7.0633335 23.536669 -4.5566664 21.79 -2.73L21.79 -2.73L14.31 0zM14.5 -16.63L8.3 -16.63L8.3 -3.83L14.4 -3.83C 16.093334 -3.83 17.436668 -4.3900003 18.43 -5.51L18.43 -5.51L19.92 -10.21C 19.920002 -14.49 18.113335 -16.63 14.5 -16.63zM8.3 -31.69L8.3 -20.39L14.04 -20.39C 15.586668 -20.39 16.836668 -20.91 17.79 -21.95L17.79 -21.95L19.21 -26.1C 19.21 -28.053335 18.779999 -29.473335 17.92 -30.36L17.92 -30.36L13.96 -31.69L8.3 -31.69zM54.22 -21.12L54.22 -14.65C 54.22 -9.796667 53.18667 -6.0600004 51.12 -3.44L51.12 -3.44L42.31 0.49C 38.643333 0.49 35.75 -0.7833333 33.63 -3.33L33.63 -3.33L30.32 -14.14L30.32 -20.83C 30.32 -25.576668 31.37 -29.296669 33.47 -31.99L33.47 -31.99L42.26 -36.04C 46 -36.04 48.916668 -34.75 51.01 -32.17L51.01 -32.17L54.22 -21.12zM49.75 -14.21L49.75 -20.87C 49.75 -24.630001 49.13667 -27.426668 47.91 -29.26L47.91 -29.26L42.26 -32.01C 39.8 -32.010002 37.940002 -31.08 36.68 -29.22L36.68 -29.22L34.76 -21.02L34.76 -14.65C 34.76 -11.016666 35.393333 -8.25 36.66 -6.35L36.66 -6.35L49.75 -14.21zM71.6 0L61.13 0L61.13 -35.55L71.26 -35.55C 74.5 -35.550003 76.93667 -34.760002 78.57 -33.18L78.57 -33.18L81.03 -26.07C 81.03 -24.41 80.613335 -22.946667 79.78 -21.68L79.78 -21.68L76.41 -18.73C 78.03667 -18.236668 79.32667 -17.233334 80.28 -15.72L80.28 -15.72L81.71 -10.25C 81.71001 -7.0633335 80.833336 -4.5566664 79.08 -2.73L79.08 -2.73L71.6 0zM71.8 -16.63L65.6 -16.63L65.6 -3.83L71.7 -3.83C 73.39333 -3.83 74.736664 -4.3900003 75.73 -5.51L75.73 -5.51L77.22 -10.21C 77.22 -14.49 75.41334 -16.63 71.8 -16.63zM65.6 -31.69L65.6 -20.39L71.33 -20.39C 72.87667 -20.39 74.12667 -20.91 75.08 -21.95L75.08 -21.95L76.51 -26.1C 76.51 -28.053335 76.07667 -29.473335 75.21 -30.36L75.21 -30.36L71.26 -31.69L65.6 -31.69zM104.88 -19.53L104.88 -15.7L92.86 -15.7L92.86 0L88.4 0L88.4 -35.55L106.9 -35.55L106.9 -31.69L92.86 -31.69L92.86 -19.53L104.88 -19.53zM116.91 -35.55L116.91 -3.83L130.85 -3.83L130.85 0L112.42 0L112.42 -35.55L116.91 -35.55zM140.83 -35.55L140.83 0L136.36 0L136.36 -35.55L140.83 -35.55zM152.33 -35.55L159.07 -21.92L165.76 -35.55L171.01 -35.55L161.75 -17.92L171.2 0L165.9 0L159.07 -13.87L152.21 0L146.91 0L156.41 -17.92L147.1 -35.55L152.33 -35.55z" stroke="none" fill="#EE3E38" fill-rule="nonzero" />
							</g>
						</g>
					</g>
				</g>
				<g>
				</g>
			</g>
		</g>
	</g>
</g>
</svg>